<?xml version="1.0" encoding="utf-8"?>
<!-- Generator: Adobe Illustrator 24.0.1, SVG Export Plug-In . SVG Version: 6.00 Build 0)  -->
<svg version="1.1" id="Layer_1" xmlns="http://www.w3.org/2000/svg" xmlns:xlink="http://www.w3.org/1999/xlink" x="0px" y="0px"
	 viewBox="0 0 156 32" style="enable-background:new 0 0 156 32;" xml:space="preserve">
<style type="text/css">
	.st0{fill:url(#SVGID_1_);}
	.st1{fill:url(#SVGID_2_);}
	.st2{fill:url(#SVGID_3_);}
	.st3{fill:#FFFFFF;}
</style>
<linearGradient id="SVGID_1_" gradientUnits="userSpaceOnUse" x1="14.5029" y1="16.5741" x2="14.5029" y2="47.4268" gradientTransform="matrix(1 0 0 1 0 -16)">
	<stop  offset="0" style="stop-color:#5683FF"/>
	<stop  offset="1" style="stop-color:#826DFF"/>
</linearGradient>
<path class="st0" d="M13.9,27c-0.2,0.4-0.4,0.9-0.7,1.2c-0.3,0.5-0.7,0.9-1.1,1.3c-0.7,0.6-1.3,0.5-2,0c-0.6-0.5-1.1-1.1-1.3-1.7
	c-0.8-1.6-1.3-3.3-1.5-5c-0.7-4-0.8-8.2-0.2-12.2c0.3-2,0.7-4,1.5-5.8c0.3-0.7,0.7-1.3,1.2-1.7c0.9-1,1.9-1,2.8,0
	C13,3.4,13.3,4,13.7,4.6c0.1,0.1,0.1,0.2,0.2,0.4C14,4.9,14,4.8,14,4.7c0.4-0.9,0.8-1.7,1.3-2.5c0.2-0.4,0.5-0.7,0.8-1
	c0.9-0.8,1.8-0.8,2.7,0c0.7,0.5,1.1,1.3,1.4,2C21,5,21.4,6.9,21.8,8.9c0.5,3.2,0.7,6.3,0.5,9.4c-0.2,3.1-0.6,6.1-1.5,9
	c-0.4,1.1-0.9,2.1-1.5,3c-0.2,0.2-0.4,0.4-0.6,0.6c-0.9,0.7-1.7,0.7-2.5,0c-0.4-0.4-0.8-0.9-1.1-1.3c-0.4-0.7-0.7-1.4-1-2.1
	C14,27.3,13.9,27.2,13.9,27z M19.2,16.2c0-2.2-0.2-4.2-0.6-6.2c-0.3-1.3-0.6-2.6-1.3-3.8c-0.3-0.5-0.6-0.9-1-1.2
	c-0.5-0.5-1.2-0.4-1.7,0c-0.1,0-0.3,0.2-0.4,0.3c-0.1,0.1-0.1,0.3-0.1,0.4c0.8,2.3,1.2,4.7,1.3,7.1c0.2,2.3,0.2,4.5-0.1,6.8
	c-0.2,2-0.5,4.1-1.2,6.1c-0.2,0.5-0.1,0.7,0.3,1c0.7,0.7,1.4,0.7,2.1,0c0.3-0.3,0.6-0.6,0.8-1c0.3-0.6,0.6-1.3,0.8-1.8
	C19,21.4,19.2,18.7,19.2,16.2z M12.1,15.7c0-0.6-0.1-1.3-0.1-2.2c-0.1-1.3-0.3-2.6-0.9-3.8c-0.2-0.4-0.5-0.9-0.8-1.3
	C10,8,9.4,8,9,8.5C8.9,8.7,8.7,8.8,8.7,9C8.4,9.4,8.2,10,8,10.6C7,14,7,17.4,7.8,20.8c0.2,0.9,0.5,1.6,1,2.4c0.6,0.8,1.3,0.8,1.8,0
	c0.3-0.5,0.5-1,0.7-1.4C12,20,12.1,17.9,12.1,15.7z"/>
<linearGradient id="SVGID_2_" gradientUnits="userSpaceOnUse" x1="26.3311" y1="18.2689" x2="26.3311" y2="45.8435" gradientTransform="matrix(1 0 0 1 0 -16)">
	<stop  offset="0" style="stop-color:#5982FF"/>
	<stop  offset="1" style="stop-color:#816EFF"/>
</linearGradient>
<path class="st1" d="M21.4,2.3C23,3,24.5,3.9,25.8,5c2.8,2.3,4.6,5.2,5.2,8.8c0.7,4-0.3,7.5-2.6,10.8c-1.7,2.3-4,4-6.7,5.2
	c-0.1,0-0.2,0.1-0.2,0.1l0,0c0.7-0.9,1.4-1.6,2.1-2.6c1.5-2.2,2.5-4.8,2.9-7.5c0.6-3.6,0.4-7.1-0.9-10.6C24.9,6.6,23.5,4.3,21.4,2.3
	C21.5,2.4,21.5,2.4,21.4,2.3z"/>
<linearGradient id="SVGID_3_" gradientUnits="userSpaceOnUse" x1="4.0558" y1="27.9913" x2="4.0558" y2="36.3462" gradientTransform="matrix(1 0 0 1 0 -16)">
	<stop  offset="0" style="stop-color:#5078DE"/>
	<stop  offset="1" style="stop-color:#B072FF"/>
</linearGradient>
<path class="st2" d="M5.4,16.2c0,1.1-0.1,2-0.5,3.1c-0.1,0.3-0.2,0.6-0.4,0.8c-0.3,0.4-0.7,0.4-1,0c-0.3-0.4-0.5-0.9-0.6-1.3
	c-0.4-1.7-0.4-3.6,0.1-5.3c0.1-0.4,0.2-0.7,0.4-1c0.3-0.5,0.8-0.5,1.1,0C4.8,13,5,13.6,5.1,14.3C5.3,14.8,5.4,15.5,5.4,16.2z"/>
<path class="st3" d="M40.6,6.4v3.6h7.9l-8.4,11.4v2.4h13.5v-3.6h-8.5l8.4-11.4V6.4H40.6z M63.4,11.5v7.6C63,20,61.9,20.4,61,20.4
	c-1.4,0-2.4-1-2.4-2.6v-6.3h-3.5v6.8c0,3.5,1.9,5.6,5,5.6c1.3,0,2.6-0.7,3.4-1.7v1.4H67V11.5H63.4z M76.6,11.3c-1.5,0-3,0.7-3.7,1.7
	v-1.4h-3.5v16.2h3.5v-5.5c0.6,1,2,1.7,3.7,1.7c3.2,0,5.7-2.8,5.7-6.4S79.7,11.3,76.6,11.3z M75.8,20.6c-1.3,0-2.3-0.7-2.9-1.5v-3
	c0.5-0.9,1.6-1.5,2.9-1.5c1.7,0,3,1.3,3,3C78.8,19.4,77.4,20.6,75.8,20.6z M95.8,17.1c0-3.3-2.6-5.8-5.9-5.8c-3.6,0-6.4,2.7-6.4,6.3
	c0,3.7,2.9,6.4,6.5,6.4c2.5,0,4.6-1,5.5-2.6l-2.7-1.6c-0.4,0.8-1.5,1.3-2.7,1.3c-1.6,0-2.8-0.9-3.2-2.5h8.8
	C95.8,17.9,95.8,17.5,95.8,17.1z M87,16.2c0.3-1.3,1.3-2.1,2.8-2.1c1.3,0,2.4,0.9,2.6,2.1H87z M104.2,11.3c-1.1,0-2.3,0.7-3,1.7
	v-1.4h-3.5v12.1h3.5v-7.4c0.6-1.2,1.8-1.8,2.7-1.8c0.5,0,1.1,0.1,1.5,0.3l0.2-3.3C105.4,11.4,104.9,11.3,104.2,11.3z M111,6.4h-3.5
	v17.4h3.5V6.4z M121.7,11.5l-2.7,7.1l-2.7-7.1h-3.8l4.7,11.2l-2.3,5h3.8l6.8-16.3L121.7,11.5L121.7,11.5z"/>
<path class="st3" d="M128.2,13.5h3.1c1.6,0,2.5-0.9,2.5-1.9s-0.8-1.7-1.5-1.7V9.6c0.8-0.2,1.3-0.7,1.3-1.5c0-1.1-0.8-1.8-2.4-1.8
	h-2.9L128.2,13.5L128.2,13.5z M129.8,12.2v-1.9h1.3c0.8,0,1.2,0.4,1.2,1c0,0.6-0.4,0.9-1.3,0.9L129.8,12.2L129.8,12.2z M129.8,9.3
	V7.5h1.2c0.7,0,1.1,0.4,1.1,0.9c0,0.6-0.5,0.9-1.1,0.9L129.8,9.3L129.8,9.3z"/>
<path class="st3" d="M134.8,13.5h4.9v-1.3h-3.4v-1.7h3.1V9.3h-3.1V7.5h3.4V6.4h-4.8L134.8,13.5L134.8,13.5z"/>
<path class="st3" d="M140.7,7.5h2.2v5.9h1.5V7.5h2.2V6.4h-6V7.5z"/>
<path class="st3" d="M147.9,13.5l0.6-1.6h2.6l0.6,1.6h1.6l-2.6-7.1h-1.9l-2.5,7.1H147.9z M148.8,10.7l0.9-2.7h0.1l0.9,2.7H148.8z"/>
</svg>
